<svg width="13" height="10" viewBox="0 0 13 10" fill="none" xmlns="http://www.w3.org/2000/svg">
<path d="M9.64283 9.1278V8.24385C9.64283 7.77498 9.47727 7.3253 9.18257 6.99376C8.88787 6.66221 8.48817 6.47595 8.0714 6.47595H4.92855C4.51178 6.47595 4.11208 6.66221 3.81738 6.99376C3.52268 7.3253 3.35712 7.77498 3.35712 8.24385V9.1278" stroke="#484848" stroke-linecap="round" stroke-linejoin="round"/>
<path d="M6.49996 4.70804C7.36783 4.70804 8.07139 3.91653 8.07139 2.94014C8.07139 1.96376 7.36783 1.17224 6.49996 1.17224C5.63208 1.17224 4.92853 1.96376 4.92853 2.94014C4.92853 3.91653 5.63208 4.70804 6.49996 4.70804Z" stroke="#484848" stroke-linecap="round" stroke-linejoin="round"/>
<path d="M12 9.12784V8.24389C11.9997 7.85218 11.8838 7.47166 11.6705 7.16207C11.4572 6.85249 11.1585 6.63137 10.8214 6.53345" stroke="#484848" stroke-linecap="round" stroke-linejoin="round"/>
<path d="M9.25 1.22974C9.58802 1.3271 9.88762 1.54827 10.1016 1.85836C10.3155 2.16846 10.4317 2.54984 10.4317 2.94239C10.4317 3.33494 10.3155 3.71632 10.1016 4.02642C9.88762 4.33651 9.58802 4.55768 9.25 4.65504" stroke="#484848" stroke-linecap="round" stroke-linejoin="round"/>
<path d="M1.00002 9.07035V8.1864C1.00028 7.79469 1.11616 7.41416 1.32948 7.10458C1.5428 6.795 1.84147 6.57388 2.17859 6.47595" stroke="#484848" stroke-linecap="round" stroke-linejoin="round"/>
<path d="M3.75305 4.59766C3.41503 4.50029 3.11543 4.27912 2.90148 3.96903C2.68753 3.65894 2.5714 3.27755 2.5714 2.885C2.5714 2.49245 2.68753 2.11107 2.90148 1.80097C3.11543 1.49088 3.41503 1.26972 3.75305 1.17235" stroke="#484848" stroke-linecap="round" stroke-linejoin="round"/>
</svg>
