<svg width="24" height="24" viewBox="0 0 24 24" fill="none" xmlns="http://www.w3.org/2000/svg">
<path d="M17.6428 1.91915C17.9342 1.62775 18.2801 1.39659 18.6609 1.23888C19.0416 1.08117 19.4497 1 19.8618 1C20.2739 1 20.682 1.08117 21.0627 1.23888C21.4435 1.39659 21.7894 1.62775 22.0808 1.91915C22.3723 2.21056 22.6034 2.55651 22.7611 2.93726C22.9188 3.318 23 3.72608 23 4.13819C23 4.5503 22.9188 4.95838 22.7611 5.33913C22.6034 5.71987 22.3723 6.06582 22.0808 6.35723L7.10235 21.3357L1 23L2.66428 16.8977L17.6428 1.91915Z" stroke="white" stroke-width="2" stroke-linecap="round" stroke-linejoin="round"/>
</svg>
