<svg width="11" height="11" viewBox="0 0 11 11" fill="none" xmlns="http://www.w3.org/2000/svg">
<path d="M5.49998 6.37316C6.17778 6.37316 6.72725 5.82674 6.72725 5.15271C6.72725 4.47867 6.17778 3.93225 5.49998 3.93225C4.82217 3.93225 4.27271 4.47867 4.27271 5.15271C4.27271 5.82674 4.82217 6.37316 5.49998 6.37316Z" stroke="#484848" stroke-linecap="round" stroke-linejoin="round"/>
<path d="M8.52727 6.37319C8.47282 6.49589 8.45657 6.632 8.48063 6.76397C8.5047 6.89594 8.56796 7.01772 8.66227 7.1136L8.68682 7.13801C8.76289 7.21357 8.82324 7.30331 8.86441 7.40208C8.90559 7.50085 8.92678 7.60673 8.92678 7.71365C8.92678 7.82058 8.90559 7.92646 8.86441 8.02523C8.82324 8.124 8.76289 8.21374 8.68682 8.2893C8.61083 8.36495 8.52059 8.42496 8.42127 8.46591C8.32194 8.50686 8.21548 8.52793 8.10795 8.52793C8.00043 8.52793 7.89397 8.50686 7.79464 8.46591C7.69531 8.42496 7.60508 8.36495 7.52909 8.2893L7.50455 8.26489C7.40813 8.17111 7.28568 8.10819 7.15297 8.08426C7.02026 8.06034 6.88339 8.07649 6.76 8.13064C6.639 8.18221 6.53581 8.26784 6.46313 8.37699C6.39044 8.48613 6.35143 8.61403 6.35091 8.74494V8.8141C6.35091 9.02989 6.26471 9.23684 6.11127 9.38943C5.95783 9.54201 5.74972 9.62773 5.53273 9.62773C5.31573 9.62773 5.10762 9.54201 4.95419 9.38943C4.80075 9.23684 4.71455 9.02989 4.71455 8.8141V8.77748C4.71138 8.64283 4.66755 8.51224 4.58875 8.40268C4.50996 8.29313 4.39985 8.20968 4.27273 8.16319C4.14934 8.10904 4.01247 8.09288 3.87976 8.11681C3.74705 8.14074 3.6246 8.20365 3.52818 8.29744L3.50364 8.32185C3.42765 8.3975 3.33741 8.45751 3.23809 8.49846C3.13876 8.5394 3.03229 8.56048 2.92477 8.56048C2.81725 8.56048 2.71078 8.5394 2.61146 8.49846C2.51213 8.45751 2.4219 8.3975 2.34591 8.32185C2.26984 8.24628 2.20949 8.15655 2.16831 8.05777C2.12714 7.959 2.10595 7.85312 2.10595 7.7462C2.10595 7.63928 2.12714 7.5334 2.16831 7.43463C2.20949 7.33585 2.26984 7.24612 2.34591 7.17055L2.37045 7.14614C2.46477 7.05026 2.52803 6.92849 2.55209 6.79652C2.57615 6.66455 2.55991 6.52844 2.50545 6.40573C2.4536 6.28541 2.36749 6.18279 2.25774 6.11051C2.14798 6.03823 2.01937 5.99944 1.88773 5.99892H1.81818C1.60119 5.99892 1.39308 5.91319 1.23964 5.76061C1.0862 5.60802 1 5.40107 1 5.18528C1 4.96949 1.0862 4.76254 1.23964 4.60995C1.39308 4.45737 1.60119 4.37164 1.81818 4.37164H1.855C1.99041 4.36849 2.12173 4.32491 2.2319 4.24655C2.34206 4.16819 2.42597 4.05869 2.47273 3.93228C2.52718 3.80958 2.54343 3.67346 2.51937 3.54149C2.4953 3.40953 2.43204 3.28775 2.33773 3.19187L2.31318 3.16746C2.23711 3.0919 2.17676 3.00216 2.13559 2.90339C2.09441 2.80461 2.07322 2.69874 2.07322 2.59181C2.07322 2.48489 2.09441 2.37901 2.13559 2.28024C2.17676 2.18147 2.23711 2.09173 2.31318 2.01617C2.38917 1.94052 2.4794 1.8805 2.57873 1.83956C2.67806 1.79861 2.78452 1.77754 2.89205 1.77754C2.99957 1.77754 3.10603 1.79861 3.20536 1.83956C3.30469 1.8805 3.39492 1.94052 3.47091 2.01617L3.49545 2.04058C3.59187 2.13436 3.71432 2.19728 3.84703 2.2212C3.97974 2.24513 4.11661 2.22898 4.24 2.17483H4.27273C4.39372 2.12326 4.49692 2.03763 4.5696 1.92848C4.64229 1.81934 4.68129 1.69144 4.68182 1.56053V1.49137C4.68182 1.27558 4.76802 1.06863 4.92146 0.916043C5.0749 0.763457 5.283 0.677734 5.5 0.677734C5.717 0.677734 5.9251 0.763457 6.07854 0.916043C6.23198 1.06863 6.31818 1.27558 6.31818 1.49137V1.52798C6.31871 1.65889 6.35771 1.78679 6.4304 1.89594C6.50308 2.00508 6.60628 2.09071 6.72727 2.14228C6.85066 2.19643 6.98753 2.21259 7.12024 2.18866C7.25295 2.16473 7.3754 2.10182 7.47182 2.00803L7.49636 1.98362C7.57235 1.90797 7.66259 1.84796 7.76191 1.80701C7.86124 1.76607 7.96771 1.74499 8.07523 1.74499C8.18275 1.74499 8.28922 1.76607 8.38854 1.80701C8.48787 1.84796 8.5781 1.90797 8.65409 1.98362C8.73016 2.05919 8.79051 2.14892 8.83169 2.24769C8.87286 2.34647 8.89405 2.45234 8.89405 2.55927C8.89405 2.66619 8.87286 2.77207 8.83169 2.87084C8.79051 2.96962 8.73016 3.05935 8.65409 3.13492L8.62955 3.15933C8.53523 3.2552 8.47197 3.37698 8.44791 3.50895C8.42384 3.64092 8.44009 3.77703 8.49455 3.89973V3.93228C8.5464 4.0526 8.63251 4.15522 8.74226 4.2275C8.85202 4.29979 8.98063 4.33858 9.11227 4.3391H9.18182C9.39881 4.3391 9.60692 4.42482 9.76036 4.57741C9.9138 4.72999 10 4.93694 10 5.15273C10 5.36852 9.9138 5.57548 9.76036 5.72806C9.60692 5.88065 9.39881 5.96637 9.18182 5.96637H9.145C9.01336 5.96689 8.88475 6.00568 8.77499 6.07796C8.66524 6.15025 8.57913 6.25286 8.52727 6.37319Z" stroke="#484848" stroke-linecap="round" stroke-linejoin="round"/>
</svg>
